<svg width="181" height="190" viewBox="0 0 181 190" fill="none" xmlns="http://www.w3.org/2000/svg">
<mask id="path-1-inside-1_0_1" fill="white">
<path d="M0 0H138V189H0V0Z"/>
</mask>
<path d="M0 0H138V189H0V0Z" fill="#3CB371" fill-opacity="0.15"/>
<path d="M138 184H0V194H138V184Z" fill="#3CB371" mask="url(#path-1-inside-1_0_1)"/>
<circle cx="68.5" cy="72.5" r="12.5" fill="white"/>
<rect x="64" y="64" width="8" height="30" fill="white"/>
<rect x="44" y="92" width="49" height="37" rx="7" fill="white"/>
<path d="M178.994 190C179.546 190.004 179.996 189.559 180 189.006L180.058 180.007C180.062 179.454 179.617 179.004 179.065 179C178.512 178.997 178.062 179.441 178.058 179.994L178.006 187.994L170.007 187.942C169.454 187.938 169.004 188.383 169 188.935C168.997 189.488 169.441 189.938 169.994 189.942L178.994 190ZM101.288 111.703L102.663 113.095L104.087 111.69L102.712 110.297L101.288 111.703ZM105.413 115.881L108.163 118.667L109.587 117.262L106.837 114.476L105.413 115.881ZM110.913 121.453L113.663 124.238L115.087 122.833L112.337 120.047L110.913 121.453ZM116.413 127.024L119.163 129.81L120.587 128.405L117.837 125.619L116.413 127.024ZM121.913 132.595L124.663 135.381L126.087 133.976L123.337 131.19L121.913 132.595ZM127.413 138.167L130.163 140.953L131.587 139.547L128.837 136.762L127.413 138.167ZM132.913 143.738L135.663 146.524L137.087 145.119L134.337 142.333L132.913 143.738ZM138.413 149.31L141.163 152.095L142.587 150.69L139.837 147.905L138.413 149.31ZM143.913 154.881L146.663 157.667L148.087 156.262L145.337 153.476L143.913 154.881ZM149.413 160.453L152.163 163.238L153.587 161.833L150.837 159.047L149.413 160.453ZM154.913 166.024L157.663 168.81L159.087 167.405L156.337 164.619L154.913 166.024ZM160.413 171.595L163.163 174.381L164.587 172.976L161.837 170.19L160.413 171.595ZM165.913 177.167L168.663 179.953L170.087 178.547L167.337 175.762L165.913 177.167ZM171.413 182.738L174.163 185.524L175.587 184.119L172.837 181.333L171.413 182.738ZM176.913 188.31L178.288 189.703L179.712 188.297L178.337 186.905L176.913 188.31ZM178.994 190C179.546 190.004 179.996 189.559 180 189.006L180.058 180.007C180.062 179.454 179.617 179.004 179.065 179C178.512 178.997 178.062 179.441 178.058 179.994L178.006 187.994L170.007 187.942C169.454 187.938 169.004 188.383 169 188.935C168.997 189.488 169.441 189.938 169.994 189.942L178.994 190ZM101.288 111.703L102.663 113.095L104.087 111.69L102.712 110.297L101.288 111.703ZM105.413 115.881L108.163 118.667L109.587 117.262L106.837 114.476L105.413 115.881ZM110.913 121.453L113.663 124.238L115.087 122.833L112.337 120.047L110.913 121.453ZM116.413 127.024L119.163 129.81L120.587 128.405L117.837 125.619L116.413 127.024ZM121.913 132.595L124.663 135.381L126.087 133.976L123.337 131.19L121.913 132.595ZM127.413 138.167L130.163 140.953L131.587 139.547L128.837 136.762L127.413 138.167ZM132.913 143.738L135.663 146.524L137.087 145.119L134.337 142.333L132.913 143.738ZM138.413 149.31L141.163 152.095L142.587 150.69L139.837 147.905L138.413 149.31ZM143.913 154.881L146.663 157.667L148.087 156.262L145.337 153.476L143.913 154.881ZM149.413 160.453L152.163 163.238L153.587 161.833L150.837 159.047L149.413 160.453ZM154.913 166.024L157.663 168.81L159.087 167.405L156.337 164.619L154.913 166.024ZM160.413 171.595L163.163 174.381L164.587 172.976L161.837 170.19L160.413 171.595ZM165.913 177.167L168.663 179.953L170.087 178.547L167.337 175.762L165.913 177.167ZM171.413 182.738L174.163 185.524L175.587 184.119L172.837 181.333L171.413 182.738ZM176.913 188.31L178.288 189.703L179.712 188.297L178.337 186.905L176.913 188.31Z" fill="white"/>
</svg>
